<?xml version="1.0" standalone="no"?><!DOCTYPE svg PUBLIC "-//W3C//DTD SVG 1.1//EN" "http://www.w3.org/Graphics/SVG/1.1/DTD/svg11.dtd"><svg t="1676001615093" class="icon" viewBox="0 0 1024 1024" version="1.1" xmlns="http://www.w3.org/2000/svg" p-id="2882" xmlns:xlink="http://www.w3.org/1999/xlink" width="200" height="200"><path d="M192 344.64H128V192a96 96 0 0 1 96-96h608a96 96 0 0 1 96 96v640a96 96 0 0 1-96 96H224a96 96 0 0 1-96-96v-126.272h64V832a32 32 0 0 0 32 32h608a32 32 0 0 0 32-32V192a32 32 0 0 0-32-32H224a32 32 0 0 0-32 32v152.64z"  p-id="2883"></path><path d="M538.688 410.848a32 32 0 1 1 39.808-50.112l148.32 117.856c23.744 18.848 10.4 57.056-19.904 57.056H72.832a32 32 0 1 1 0-64h542.368l-76.48-60.8z"  p-id="2884"></path></svg>